<?xml version="1.0" encoding="UTF-8" standalone="no"?>
<svg
   width="59.494965"
   height="58.293137"
   viewBox="0 0 59.494965 58.293136"
   version="1.1"
   id="svg17"
   sodipodi:docname="ntz - icons.svg"
   inkscape:export-filename="../../sxn/images/full-screen.svg"
   inkscape:export-xdpi="96"
   inkscape:export-ydpi="96"
   xmlns:inkscape="http://www.inkscape.org/namespaces/inkscape"
   xmlns:sodipodi="http://sodipodi.sourceforge.net/DTD/sodipodi-0.dtd"
   xmlns="http://www.w3.org/2000/svg"
   xmlns:svg="http://www.w3.org/2000/svg">
  <defs
     id="defs17" />
  <sodipodi:namedview
     id="namedview17"
     pagecolor="#ffffff"
     bordercolor="#000000"
     borderopacity="0.25"
     inkscape:showpageshadow="2"
     inkscape:pageopacity="0.0"
     inkscape:pagecheckerboard="0"
     inkscape:deskcolor="#d1d1d1" />
  <path
     d="m 29.191463,37.053832 c -0.036,0 -0.072,0 -0.1084,-10e-4 a 6.851,6.851 0 0 1 -5.4375,-2.8271 L 6.7041627,10.877032 A 6.8522115,6.8522115 0 1 1 17.795963,2.8282317 l 11.5761,15.9531003 12.4561,-16.0732003 a 6.8520043,6.8520043 0 1 1 10.832,8.3945003 l -18.0527,23.2959 a 6.85,6.85 0 0 1 -5.416,2.6553 z"
     fill="#231f20"
     id="path3" />
  <path
     d="M 45.381863,58.293132 H 5.8466627 A 5.8473,5.8473 0 0 1 6.2718977e-5,52.446432 v -13.4053 a 5.8467,5.8467 0 1 1 11.693300281023,0 v 7.5586 h 33.6885 a 5.8467,5.8467 0 0 1 0,11.6934 z"
     fill="#231f20"
     id="path15" />
  <path
     d="m 53.648263,58.293132 h -13.5635 a 5.8467,5.8467 0 0 1 0,-11.6934 h 7.7168 v -7.5586 a 5.8467,5.8467 0 1 1 11.6934,0 v 13.4053 a 5.8474,5.8474 0 0 1 -5.8467,5.8467 z"
     fill="#231f20"
     id="path16" />
</svg>
