<?xml version="1.0" encoding="UTF-8" standalone="no"?>
<svg
   width="56.9673"
   height="57.059952"
   viewBox="0 0 56.967301 57.059952"
   version="1.1"
   id="svg17"
   sodipodi:docname="ntz - icons.svg"
   inkscape:export-filename="../../sxn/images/full-screen.svg"
   inkscape:export-xdpi="96"
   inkscape:export-ydpi="96"
   xmlns:inkscape="http://www.inkscape.org/namespaces/inkscape"
   xmlns:sodipodi="http://sodipodi.sourceforge.net/DTD/sodipodi-0.dtd"
   xmlns="http://www.w3.org/2000/svg"
   xmlns:svg="http://www.w3.org/2000/svg">
  <defs
     id="defs17" />
  <sodipodi:namedview
     id="namedview17"
     pagecolor="#ffffff"
     bordercolor="#000000"
     borderopacity="0.25"
     inkscape:showpageshadow="2"
     inkscape:pageopacity="0.0"
     inkscape:pagecheckerboard="0"
     inkscape:deskcolor="#d1d1d1" />
  <path
     d="M 5.846694,25.100005 A 5.8471,5.8471 0 0 1 -6.0455333e-6,19.253305 V 5.8471052 A 5.847,5.847 0 0 1 5.846694,4.0516749e-4 h 13.563 a 5.8467,5.8467 0 1 1 0,11.69329983251 h -7.7163 v 7.56 a 5.8471,5.8471 0 0 1 -5.8467,5.8463 z"
     fill="#231f20"
     id="path12" />
  <path
     d="m 51.120594,25.100005 a 5.8474,5.8474 0 0 1 -5.8467,-5.8467 v -7.56 h -7.7168 a 5.8467,5.8467 0 0 1 0,-11.6932998325128 h 13.5635 A 5.8473,5.8473 0 0 1 56.967294,5.8467052 V 19.252905 a 5.8474,5.8474 0 0 1 -5.8467,5.8471 z"
     fill="#231f20"
     id="path13" />
  <path
     d="m 19.409694,57.059905 h -13.563 A 5.847,5.847 0 0 1 -6.0455332e-6,51.213305 v -13.4053 a 5.8467,5.8467 0 1 1 11.6934000455332,0 v 7.5586 h 7.7163 a 5.8467,5.8467 0 1 1 0,11.6933 z"
     fill="#231f20"
     id="path14" />
  <path
     d="m 51.120594,57.059905 h -13.5635 a 5.8467,5.8467 0 0 1 0,-11.6933 h 7.7168 v -7.5586 a 5.8467,5.8467 0 1 1 11.6934,0 v 13.4053 a 5.8473,5.8473 0 0 1 -5.8467,5.8466 z"
     fill="#231f20"
     id="path17" />
</svg>
