<?xml version="1.0" encoding="UTF-8"?>
<svg id="a" data-name="Layer_1" xmlns="http://www.w3.org/2000/svg" width="5.222in" height="3.045in" viewBox="0 0 375.982 219.256">
  <path style="fill:#fff" d="M266.354,0c-60.449,0-109.628,49.179-109.628,109.628s49.179,109.628,109.628,109.628,109.629-49.179,109.629-109.628S326.803,0,266.354,0ZM347.307,109.628c0,44.637-36.315,80.952-80.953,80.952s-80.952-36.315-80.952-80.952,36.315-80.953,80.952-80.953,80.953,36.315,80.953,80.953Z"/>
  <path style="fill:#fff" d="M126.313,46.12c-2.359-7.266-10.164-11.242-17.434-8.881l-31.562,10.254V14.333c0-7.643-6.192-13.834-13.832-13.834s-13.832,6.193-13.832,13.834v33.152l-31.535-10.246c-7.266-2.361-15.075,1.615-17.438,8.881-2.359,7.266,1.621,15.07,8.887,17.432l31.539,10.246-19.496,26.826c-4.488,6.182-3.117,14.834,3.062,19.322,6.18,4.492,14.832,3.121,19.325-3.06l19.488-26.825,19.492,26.827c4.484,6.179,13.141,7.55,19.32,3.058,6.18-4.49,7.551-13.14,3.059-19.322l-19.484-26.818,31.562-10.254c7.262-2.364,11.238-10.166,8.879-17.432"/>
  <path style="fill:#fff" d="M133.273,218.767c12.047,0,21.813-9.766,21.813-21.812s-9.766-21.813-21.813-21.813-21.813,9.766-21.813,21.813,9.766,21.812,21.813,21.812"/>
</svg>
