<?xml version="1.0" encoding="UTF-8" standalone="no"?>
<svg
   id="a"
   data-name="Layer_1"
   width="5.222in"
   height="3.045in"
   viewBox="0 0 375.982 219.256"
   version="1.1"
   sodipodi:docname="logo-split.svg"
   inkscape:version="1.3.2 (091e20e, 2023-11-25)"
   xmlns:inkscape="http://www.inkscape.org/namespaces/inkscape"
   xmlns:sodipodi="http://sodipodi.sourceforge.net/DTD/sodipodi-0.dtd"
   xmlns="http://www.w3.org/2000/svg"
   xmlns:svg="http://www.w3.org/2000/svg">
  <defs
     id="defs3" />
  <sodipodi:namedview
     id="namedview3"
     pagecolor="#ffffff"
     bordercolor="#000000"
     borderopacity="0.25"
     inkscape:showpageshadow="2"
     inkscape:pageopacity="0.0"
     inkscape:pagecheckerboard="0"
     inkscape:deskcolor="#d1d1d1"
     inkscape:document-units="in"
     showguides="true"
     inkscape:zoom="1.0943718"
     inkscape:cx="207.42493"
     inkscape:cy="45.231428"
     inkscape:window-width="1472"
     inkscape:window-height="832"
     inkscape:window-x="1018"
     inkscape:window-y="1478"
     inkscape:window-maximized="0"
     inkscape:current-layer="a">
    <sodipodi:guide
       position="63.504365,157.86683"
       orientation="1,0"
       id="guide3"
       inkscape:locked="false" />
    <sodipodi:guide
       position="63.865892,157.7137"
       orientation="0,-1"
       id="guide4"
       inkscape:locked="false" />
  </sodipodi:namedview>
  <path
     d="M266.354,0c-60.449,0-109.628,49.179-109.628,109.628s49.179,109.628,109.628,109.628,109.629-49.179,109.629-109.628S326.803,0,266.354,0ZM347.307,109.628c0,44.637-36.315,80.952-80.953,80.952s-80.952-36.315-80.952-80.952,36.315-80.953,80.952-80.953,80.953,36.315,80.953,80.953Z"
     id="path1" />
  <path
     d="M133.273,218.767c12.047,0,21.813-9.766,21.813-21.812s-9.766-21.813-21.813-21.813-21.813,9.766-21.813,21.813,9.766,21.812,21.813,21.812"
     id="path3" />
  <path
     style="opacity:1;fill:#666666;stroke:#000000;stroke-width:28.082;stroke-linecap:round;stroke-linejoin:round;stroke-dasharray:none"
     d="M 63.502371,61.66245 63.76384,14.887238"
     id="path4"
     sodipodi:nodetypes="cc" />
  <path
     style="opacity:1;fill:#666666;stroke:#000000;stroke-width:28.082;stroke-linecap:round;stroke-linejoin:round;stroke-dasharray:none"
     d="M 65.940653,65.074053 113.16649,50.54025"
     id="path4-3"
     sodipodi:nodetypes="cc" />
  <path
     style="opacity:1;fill:#666666;stroke:#000000;stroke-width:28.082;stroke-linecap:round;stroke-linejoin:round;stroke-dasharray:none"
     d="M 14.467841,50.318976 60.016379,65.603821"
     id="path4-3-9"
     sodipodi:nodetypes="cc" />
  <path
     style="opacity:1;fill:#666666;stroke:#000000;stroke-width:28.082;stroke-linecap:round;stroke-linejoin:round;stroke-dasharray:none"
     d="M 33.104496,108.27897 60.948212,70.449351"
     id="path4-3-8"
     sodipodi:nodetypes="cc" />
  <path
     style="opacity:1;fill:#666666;stroke:#000000;stroke-width:28.082;stroke-linecap:round;stroke-linejoin:round;stroke-dasharray:none"
     d="M 93.673624,108.65171 66.166475,69.703885"
     id="path4-3-6"
     sodipodi:nodetypes="cc" />
</svg>
