<?xml version="1.0" encoding="UTF-8" standalone="no"?>
<svg
   width="68.242859"
   height="58.293106"
   viewBox="0 0 68.242859 58.293106"
   version="1.1"
   id="svg17"
   sodipodi:docname="ntz - icons.svg"
   inkscape:export-filename="../../sxn/images/full-screen.svg"
   inkscape:export-xdpi="96"
   inkscape:export-ydpi="96"
   xmlns:inkscape="http://www.inkscape.org/namespaces/inkscape"
   xmlns:sodipodi="http://sodipodi.sourceforge.net/DTD/sodipodi-0.dtd"
   xmlns="http://www.w3.org/2000/svg"
   xmlns:svg="http://www.w3.org/2000/svg">
  <defs
     id="defs17" />
  <sodipodi:namedview
     id="namedview17"
     pagecolor="#ffffff"
     bordercolor="#000000"
     borderopacity="0.25"
     inkscape:showpageshadow="2"
     inkscape:pageopacity="0.0"
     inkscape:pagecheckerboard="0"
     inkscape:deskcolor="#d1d1d1" />
  <path
     d="M 61.364081,13.705155 H 6.8787806 a 6.8526,6.8526 0 1 1 0,-13.705099587274 H 61.364081 a 6.8526,6.8526 0 1 1 0,13.705099587274 z"
     fill="#231f20"
     id="path8" />
  <path
     d="M 61.364081,35.999055 H 6.8787806 a 6.8526,6.8526 0 1 1 0,-13.7051 H 61.364081 a 6.8526,6.8526 0 1 1 0,13.7051 z"
     fill="#231f20"
     id="path9" />
  <path
     d="M 61.364081,58.293055 H 6.8787806 a 6.8526,6.8526 0 1 1 0,-13.7051 H 61.364081 a 6.8526,6.8526 0 1 1 0,13.7051 z"
     fill="#231f20"
     id="path10" />
  <g
     id="g17"
     transform="translate(-268.77542,-151.75494)">
    <path
       d="m 949.2051,643.8105 h -13.563 a 5.847,5.847 0 0 1 -5.8467,-5.8466 v -13.4053 a 5.8467,5.8467 0 1 1 11.6934,0 v 7.5586 h 7.7163 a 5.8467,5.8467 0 1 1 0,11.6933 z"
       transform="translate(-747.1349,-434.7704)"
       fill="#231f20"
       id="path14" />
    <path
       d="m 1158.6836,644.8184 h -39.5352 a 5.8473,5.8473 0 0 1 -5.8466,-5.8467 v -13.4053 a 5.8467,5.8467 0 1 1 11.6933,0 v 7.5586 h 33.6885 a 5.8467,5.8467 0 0 1 0,11.6934 z"
       transform="translate(-747.1349,-434.7704)"
       fill="#231f20"
       id="path15" />
    <path
       d="m 1166.95,644.8184 h -13.5635 a 5.8467,5.8467 0 0 1 0,-11.6934 h 7.7168 v -7.5586 a 5.8467,5.8467 0 1 1 11.6934,0 v 13.4053 a 5.8474,5.8474 0 0 1 -5.8467,5.8467 z"
       transform="translate(-747.1349,-434.7704)"
       fill="#231f20"
       id="path16" />
    <path
       d="m 980.916,643.8105 h -13.5635 a 5.8467,5.8467 0 0 1 0,-11.6933 h 7.7168 v -7.5586 a 5.8467,5.8467 0 1 1 11.6934,0 v 13.4053 a 5.8473,5.8473 0 0 1 -5.8467,5.8466 z"
       transform="translate(-747.1349,-434.7704)"
       fill="#231f20"
       id="path17" />
  </g>
</svg>
