<?xml version="1.0" encoding="UTF-8" standalone="no"?>
<svg
   id="a"
   data-name="Layer_1"
   width="290"
   height="82"
   viewBox="0 0 290 82"
   version="1.1"
   sodipodi:docname="word-mark-tag-line-white.svg"
   inkscape:version="1.3.2 (091e20e, 2023-11-25)"
   xmlns:inkscape="http://www.inkscape.org/namespaces/inkscape"
   xmlns:sodipodi="http://sodipodi.sourceforge.net/DTD/sodipodi-0.dtd"
   xmlns="http://www.w3.org/2000/svg"
   xmlns:svg="http://www.w3.org/2000/svg">
  <defs
     id="defs18" />
  <sodipodi:namedview
     id="namedview18"
     pagecolor="#ffffff"
     bordercolor="#000000"
     borderopacity="0.25"
     inkscape:showpageshadow="2"
     inkscape:pageopacity="0.0"
     inkscape:pagecheckerboard="0"
     inkscape:deskcolor="#d1d1d1"
     inkscape:zoom="1.5733333"
     inkscape:cx="187.5"
     inkscape:cy="75"
     inkscape:window-width="1552"
     inkscape:window-height="721"
     inkscape:window-x="996"
     inkscape:window-y="302"
     inkscape:window-maximized="0"
     inkscape:current-layer="a" />
  <rect
     width="375"
     height="150"
     fill="none"
     id="rect1"
     x="-41.949154"
     y="-33.68644" />
  <path
     d="m 270.99985,34.52156 c -1.239,-1.442 -1.858,-3.401 -1.858,-5.879 0,-2.517 0.619,-4.477 1.858,-5.878 1.239,-1.401 2.914,-2.102 5.027,-2.102 2.113,0 3.838,0.701 5.178,2.102 1.341,1.401 2.01,3.361 2.01,5.878 0,2.478 -0.669,4.438 -2.01,5.879 -1.34,1.442 -3.067,2.162 -5.178,2.162 -2.111,0 -3.788,-0.721 -5.027,-2.162 m 15.17,17.267 c 2.254,-2.722 3.381,-5.581 3.381,-10.414 v -22.419 c 0,-2.395 -0.975,-3.594 -2.925,-3.594 -0.935,0 -1.665,0.182 -2.193,0.548 -0.528,0.365 -0.792,1.056 -0.792,2.071 v 1.036 c -0.934,-1.584 -2.132,-2.711 -3.594,-3.381 -1.462,-0.67 -2.985,-1.005 -4.569,-1.005 -2.559,0 -4.843,0.528 -6.853,1.584 -2.011,1.056 -3.585,2.619 -4.722,4.691 -1.137,2.072 -1.706,4.651 -1.706,7.737 0,3.047 0.569,5.615 1.706,7.707 1.137,2.092 2.711,3.676 4.722,4.751 2.01,1.077 4.295,1.615 6.853,1.615 2.924,0 5.34,-0.995 7.25,-2.985 v 1.644 c 0,3.209 -0.57,4.627 -1.706,6.089 -1.138,1.463 -2.904,2.194 -5.3,2.194 -2.235,0 -4.062,-0.609 -5.483,-1.828 -0.894,-0.691 -1.706,-1.137 -2.437,-1.34 -0.731,-0.205 -1.544,0 -2.437,0.609 -0.894,0.569 -1.422,1.279 -1.585,2.132 -0.163,0.853 0.183,1.726 1.036,2.619 2.681,2.681 6.315,4.021 10.905,4.021 4.71,0 8.193,-1.362 10.447,-4.082 m -38.962,-10.718 v -12.489 c 0,-2.355 0.701,-4.183 2.102,-5.483 1.401,-1.299 3.096,-1.949 5.087,-1.949 0.446,0 0.853,0.01 1.218,0.03 0.366,0.021 0.71,0.051 1.035,0.092 0.691,0.082 1.299,-0.122 1.828,-0.61 0.527,-0.487 0.792,-1.258 0.792,-2.315 0,-1.136 -0.336,-2.041 -1.005,-2.711 -0.67,-0.67 -1.635,-1.005 -2.894,-1.005 -1.746,0 -3.401,0.448 -4.965,1.34 -1.564,0.894 -2.711,2.072 -3.442,3.534 v -1.401 c 0,-1.056 -0.304,-1.776 -0.913,-2.162 -0.61,-0.385 -1.321,-0.579 -2.132,-0.579 -2.397,0 -3.595,1.199 -3.595,3.594 v 22.115 c 0,2.397 1.158,3.594 3.473,3.594 2.274,0 3.412,-1.197 3.412,-3.594 m -32.35,-4.326 c -1.34,-1.585 -2.01,-3.838 -2.01,-6.763 0,-2.925 0.67,-5.179 2.01,-6.763 1.34,-1.584 3.066,-2.375 5.178,-2.375 2.152,0 3.909,0.791 5.27,2.375 1.36,1.584 2.041,3.838 2.041,6.763 0,2.925 -0.68,5.178 -2.041,6.763 -1.362,1.584 -3.118,2.375 -5.27,2.375 -2.112,0 -3.838,-0.791 -5.178,-2.375 m 12.519,6.671 c 2.132,-1.279 3.808,-3.067 5.027,-5.361 1.218,-2.295 1.827,-4.985 1.827,-8.072 0,-3.087 -0.609,-5.777 -1.827,-8.072 -1.219,-2.294 -2.894,-4.082 -5.027,-5.361 -2.132,-1.279 -4.579,-1.919 -7.341,-1.919 -2.68,0 -5.086,0.639 -7.218,1.919 -2.132,1.279 -3.819,3.068 -5.057,5.361 -1.239,2.295 -1.858,4.986 -1.858,8.072 0,3.086 0.619,5.778 1.858,8.072 1.238,2.295 2.925,4.082 5.057,5.361 2.132,1.279 4.539,1.919 7.218,1.919 2.762,0 5.209,-0.639 7.341,-1.919 m -27.322,0.578 c 0.913,-0.893 1.371,-1.97 1.371,-3.229 0,-1.3 -0.458,-2.396 -1.371,-3.29 -0.913,-0.893 -2.001,-1.341 -3.259,-1.341 -1.258,0 -2.345,0.448 -3.259,1.341 -0.913,0.893 -1.371,1.99 -1.371,3.29 0,1.259 0.458,2.336 1.371,3.229 0.914,0.892 2,1.34 3.259,1.34 1.259,0 2.346,-0.448 3.259,-1.34 m -32.714,-2.924 v -13.098 c 0,-2.355 0.548,-4.132 1.645,-5.331 1.097,-1.198 2.517,-1.797 4.264,-1.797 1.584,0 2.842,0.579 3.777,1.736 0.935,1.157 1.401,2.893 1.401,5.208 v 13.281 c 0,2.397 1.157,3.594 3.473,3.594 2.273,0 3.412,-1.197 3.412,-3.594 v -14.925 c 0,-3.777 -0.966,-6.641 -2.894,-8.59 -1.929,-1.949 -4.417,-2.924 -7.462,-2.924 -1.828,0 -3.412,0.416 -4.752,1.249 -1.34,0.833 -2.417,1.818 -3.228,2.954 l -0.183,-1.888 c -0.082,-1.056 -1.157,-1.584 -3.228,-1.584 -2.071,0 -3.107,1.199 -3.107,3.594 v 22.115 c 0,2.397 1.157,3.594 3.472,3.594 2.274,0 3.412,-1.197 3.412,-3.594 m -30.693,-19.617 c 1.157,-0.975 2.628,-1.462 4.417,-1.462 1.665,0 3.036,0.517 4.112,1.554 1.076,1.035 1.775,2.508 2.101,4.417 h -12.976 c 0.405,-2.03 1.188,-3.534 2.346,-4.508 m 10.935,22.753 c 1.786,-0.751 3.37,-1.959 4.751,-3.624 0.853,-0.975 1.219,-1.909 1.097,-2.803 -0.122,-0.894 -0.59,-1.624 -1.401,-2.194 -0.813,-0.568 -1.575,-0.72 -2.284,-0.457 -0.712,0.265 -1.473,0.823 -2.284,1.676 -1.381,1.706 -3.311,2.559 -5.788,2.559 -2.193,0 -3.981,-0.619 -5.361,-1.858 -1.381,-1.238 -2.153,-3.32 -2.315,-6.244 h 16.449 c 1.178,0 2.071,-0.233 2.681,-0.701 0.609,-0.467 0.913,-1.452 0.913,-2.955 0,-2.152 -0.508,-4.223 -1.523,-6.214 -1.015,-1.989 -2.477,-3.614 -4.386,-4.873 -1.909,-1.258 -4.224,-1.888 -6.944,-1.888 -2.72,0 -5.138,0.62 -7.25,1.858 -2.113,1.239 -3.757,3.006 -4.935,5.3 -1.178,2.295 -1.767,5.027 -1.767,8.194 0,5.077 1.32,8.905 3.96,11.484 2.639,2.58 6.092,3.868 10.357,3.868 2.233,0 4.243,-0.376 6.032,-1.127 m -27.039,0.456 c 2.437,0 3.655,-0.954 3.655,-2.863 0,-1.867 -1.219,-2.803 -3.655,-2.803 h -11.453 l 12.915,-16.083 c 0.569,-0.69 0.975,-1.39 1.219,-2.102 0.244,-0.71 0.366,-1.512 0.366,-2.406 v -0.243 c 0,-1.868 -1.199,-2.803 -3.595,-2.803 h -14.56 c -2.397,0 -3.595,0.935 -3.595,2.803 0,0.893 0.315,1.584 0.945,2.071 0.629,0.488 1.512,0.731 2.65,0.731 h 9.991 l -12.733,16.144 c -1.056,1.3 -1.584,2.782 -1.584,4.447 v 0.305 c 0,1.868 1.198,2.802 3.595,2.802 z M 95.180847,9.2695596 c 0.853,-0.853 1.279,-1.867 1.279,-3.046 0,-1.179 -0.426,-2.194 -1.279,-3.047 -0.853,-0.853 -1.869,-1.279 -3.047,-1.279 -1.178,0 -2.193,0.426 -3.046,1.279 -0.853,0.853 -1.279,1.869 -1.279,3.047 0,1.178 0.426,2.193 1.279,3.046 0.853,0.8530004 1.867,1.2790004 3.046,1.2790004 1.179,0 2.194,-0.426 3.047,-1.2790004 m 0.426,31.8010004 v -22.115 c 0,-2.395 -1.138,-3.594 -3.412,-3.594 -2.274,0 -3.412,1.199 -3.412,3.594 v 22.115 c 0,2.397 1.136,3.594 3.412,3.594 2.276,0 3.412,-1.197 3.412,-3.594 m -15.522,4.051 c 0.913,-0.143 1.665,-0.448 2.254,-0.914 0.588,-0.467 0.883,-1.208 0.883,-2.224 0,-1.258 -0.376,-2.041 -1.127,-2.345 -0.752,-0.304 -1.777,-0.457 -3.076999,-0.457 -1.259,0 -2.223,-0.244 -2.893,-0.731 -0.67,-0.488 -1.005,-1.421 -1.005,-2.803 v -14.377 h 4.568999 c 2.355,0 3.534,-0.995 3.534,-2.985 0,-1.95 -1.199,-2.925 -3.593999,-2.925 h -4.508 V 8.6595596 c 0,-2.396 -1.118,-3.595 -3.351,-3.595 -2.315,0 -3.472,1.199 -3.472,3.595 V 15.36056 h -2.072 c -1.34,0 -2.264,0.254 -2.771,0.761 -0.507,0.507 -0.762,1.229 -0.762,2.163 0,1.99 1.198,2.985 3.595,2.985 h 2.01 v 16.143 c 0,3.169 0.761,5.281 2.284,6.336 1.523,1.056 3.725,1.584 6.609,1.584 1.015,0 1.98,-0.072 2.893999,-0.213 m -38.111999,-23.666 c 1.157,-0.975 2.629,-1.462 4.417,-1.462 1.665,0 3.036,0.517 4.112,1.554 1.076,1.035 1.776,2.508 2.102,4.417 h -12.976 c 0.405,-2.03 1.188,-3.534 2.345,-4.508 m 10.935,22.753 c 1.786,-0.751 3.37,-1.959 4.752,-3.624 0.853,-0.975 1.218,-1.909 1.096,-2.803 -0.122,-0.893 -0.589,-1.624 -1.401,-2.194 -0.813,-0.568 -1.574,-0.72 -2.284,-0.457 -0.711,0.265 -1.472,0.823 -2.284,1.676 -1.381,1.706 -3.311,2.559 -5.788,2.559 -2.193,0 -3.98,-0.619 -5.36,-1.858 -1.381,-1.238 -2.153,-3.32 -2.316,-6.244 h 16.449 c 1.178,0 2.072,-0.233 2.681,-0.701 0.609,-0.467 0.914,-1.452 0.914,-2.955 0,-2.152 -0.509,-4.223 -1.523,-6.214 -1.016,-1.989 -2.478,-3.614 -4.386,-4.873 -1.909,-1.258 -4.224,-1.888 -6.945,-1.888 -2.721,0 -5.138,0.62 -7.25,1.858 -2.112,1.239 -3.757,3.006 -4.935,5.3 -1.178,2.295 -1.766,5.027 -1.766,8.194 0,5.077 1.319,8.905 3.96,11.484 2.639,2.58 6.092,3.868 10.357,3.868 2.233,0 4.243,-0.376 6.031,-1.127 m -44.4120001,-3.138 v -13.098 c 0,-2.355 0.548,-4.132 1.6450001,-5.331 1.096,-1.198 2.517,-1.797 4.264,-1.797 1.584,0 2.842,0.579 3.777,1.736 0.934,1.157 1.401,2.893 1.401,5.208 v 13.281 c 0,2.397 1.157,3.594 3.473,3.594 2.273,0 3.412,-1.197 3.412,-3.594 v -14.925 c 0,-3.777 -0.966,-6.641 -2.894,-8.59 -1.93,-1.949 -4.417,-2.924 -7.462,-2.924 -1.828,0 -3.412,0.416 -4.752,1.249 -1.34,0.833 -2.4170001,1.818 -3.2290001,2.954 l -0.183,-1.888 c -0.082,-1.056 -1.157,-1.584 -3.229,-1.584 -2.072,0 -3.106,1.199 -3.106,3.594 v 22.115 c 0,2.397 1.157,3.594 3.472,3.594 2.274,0 3.412,-1.197 3.412,-3.594"
     fill="#ffffff"
     id="path1" />
  <g
     id="g18"
     transform="translate(-41.949152,-33.68644)">
    <path
       d="m 50.955,113.266 c -1.002,0.619 -2.237,0.928 -3.702,0.928 H 43.5 v -13.901 h 3.43 c 1.412,0 2.586,0.272 3.521,0.818 0.935,0.545 1.402,1.442 1.402,2.693 0,0.834 -0.249,1.503 -0.747,2.008 -0.497,0.504 -1.116,0.844 -1.856,1.018 2.139,0.364 3.208,1.5 3.208,3.41 0,1.399 -0.501,2.407 -1.503,3.026 z m -1.604,-11.027 c -0.471,-0.343 -1.144,-0.514 -2.018,-0.514 h -2.078 v 4.479 h 2.239 c 1.708,0 2.563,-0.767 2.563,-2.3 0,-0.767 -0.236,-1.322 -0.706,-1.665 z m 0.454,6.002 c -0.532,-0.39 -1.261,-0.585 -2.189,-0.585 h -2.361 v 5.084 h 2.3 c 0.847,0 1.567,-0.175 2.159,-0.525 0.592,-0.349 0.888,-0.989 0.888,-1.917 0,-0.982 -0.266,-1.668 -0.797,-2.058 z"
       fill="#ffffff"
       id="path2" />
    <path
       d="m 60.972,106.426 h 5.165 v 1.432 h -5.165 v 4.923 h 6.335 v 1.412 h -8.07 v -13.901 h 7.889 l -0.202,1.453 h -5.952 z"
       fill="#ffffff"
       id="path3" />
    <path
       d="m 74.894,101.988 c 0,0.094 0.04,0.679 0.121,1.754 0.081,1.076 0.121,2.24 0.121,3.491 v 6.96 h -1.634 v -13.901 h 2.38 l 4.983,12.267 -0.04,-0.726 c -0.135,-1.654 -0.202,-3.18 -0.202,-4.58 v -6.96 h 1.634 v 13.901 h -2.462 l -4.902,-12.206 z"
       fill="#ffffff"
       id="path4" />
    <path
       d="m 93.858,114.193 h -1.755 v -12.388 h -4.338 v -1.514 h 10.471 l -0.181,1.514 h -4.197 z"
       fill="#ffffff"
       id="path5" />
    <path
       d="m 124.232,112.459 c -0.881,1.305 -2.142,1.957 -3.783,1.957 -1.655,0 -2.919,-0.639 -3.793,-1.917 -0.875,-1.278 -1.311,-3.02 -1.311,-5.226 0,-1.412 0.195,-2.663 0.585,-3.753 0.39,-1.09 0.969,-1.937 1.735,-2.543 0.766,-0.606 1.695,-0.908 2.784,-0.908 1.641,0 2.902,0.649 3.783,1.947 0.881,1.299 1.321,3.044 1.321,5.236 0,2.166 -0.441,3.901 -1.321,5.206 z m -1.281,-9.484 c -0.525,-0.955 -1.359,-1.432 -2.502,-1.432 -1.143,0 -1.977,0.481 -2.502,1.443 -0.525,0.962 -0.787,2.39 -0.787,4.287 0,1.883 0.265,3.298 0.797,4.247 0.532,0.949 1.362,1.422 2.492,1.422 1.143,0 1.977,-0.474 2.502,-1.422 0.524,-0.948 0.787,-2.371 0.787,-4.267 0,-1.896 -0.262,-3.322 -0.787,-4.277 z"
       fill="#ffffff"
       id="path6" />
    <path
       d="m 132.595,101.988 c 0,0.094 0.04,0.679 0.121,1.754 0.081,1.076 0.121,2.24 0.121,3.491 v 6.96 h -1.634 v -13.901 h 2.38 l 4.983,12.267 -0.04,-0.726 c -0.135,-1.654 -0.202,-3.18 -0.202,-4.58 v -6.96 h 1.634 v 13.901 h -2.462 l -4.902,-12.206 z"
       fill="#ffffff"
       id="path7" />
    <path
       d="m 166.359,113.266 c -1.002,0.619 -2.237,0.928 -3.702,0.928 h -3.753 v -13.901 h 3.43 c 1.412,0 2.586,0.272 3.521,0.818 0.935,0.545 1.402,1.442 1.402,2.693 0,0.834 -0.249,1.503 -0.747,2.008 -0.497,0.504 -1.116,0.844 -1.856,1.018 2.139,0.364 3.208,1.5 3.208,3.41 0,1.399 -0.501,2.407 -1.503,3.026 z m -1.604,-11.027 c -0.471,-0.343 -1.144,-0.514 -2.018,-0.514 h -2.078 v 4.479 h 2.239 c 1.708,0 2.563,-0.767 2.563,-2.3 0,-0.767 -0.236,-1.322 -0.706,-1.665 z m 0.453,6.002 c -0.532,-0.39 -1.261,-0.585 -2.189,-0.585 h -2.361 v 5.084 h 2.3 c 0.847,0 1.567,-0.175 2.159,-0.525 0.592,-0.349 0.888,-0.989 0.888,-1.917 0,-0.982 -0.266,-1.668 -0.797,-2.058 z"
       fill="#ffffff"
       id="path8" />
    <path
       d="m 176.376,106.426 h 5.165 v 1.432 h -5.165 v 4.923 h 6.335 v 1.412 h -8.07 v -13.901 h 7.889 l -0.202,1.453 h -5.952 z"
       fill="#ffffff"
       id="path9" />
    <path
       d="m 190.297,101.988 c 0,0.094 0.04,0.679 0.121,1.754 0.081,1.076 0.121,2.24 0.121,3.491 v 6.96 h -1.634 v -13.901 h 2.38 l 4.983,12.267 -0.041,-0.726 c -0.134,-1.654 -0.201,-3.18 -0.201,-4.58 v -6.96 h 1.634 v 13.901 h -2.461 z"
       fill="#ffffff"
       id="path10" />
    <path
       d="m 211.702,112.66 c -1.21,1.022 -2.703,1.533 -4.479,1.533 h -3.187 v -13.901 h 2.965 c 1.951,0 3.524,0.492 4.722,1.473 1.198,0.981 1.796,2.784 1.796,5.407 0,2.637 -0.605,4.466 -1.816,5.488 z m -0.675,-8.948 c -0.411,-0.801 -0.918,-1.332 -1.523,-1.594 -0.605,-0.262 -1.299,-0.393 -2.078,-0.393 h -1.634 v 11.056 h 1.654 c 1.197,0 2.196,-0.414 2.996,-1.24 0.801,-0.828 1.201,-2.284 1.201,-4.369 0,-1.506 -0.205,-2.66 -0.615,-3.46 z"
       fill="#ffffff"
       id="path11" />
    <path
       d="m 227.52,101.705 h -3.086 v 11.097 h 3.086 v 1.392 h -7.949 v -1.392 h 3.087 v -11.097 h -3.087 v -1.412 h 7.949 z"
       fill="#ffffff"
       id="path12" />
    <path
       d="m 235.691,101.988 c 0,0.094 0.04,0.679 0.121,1.754 0.081,1.076 0.122,2.24 0.122,3.491 v 6.96 H 234.3 v -13.901 h 2.38 l 4.984,12.267 -0.041,-0.726 c -0.134,-1.654 -0.202,-3.18 -0.202,-4.58 v -6.96 h 1.634 v 13.901 h -2.461 z"
       fill="#ffffff"
       id="path13" />
    <path
       d="m 250.107,112.589 c -0.962,-1.217 -1.443,-3.003 -1.443,-5.357 0,-1.533 0.269,-2.838 0.807,-3.915 0.537,-1.076 1.251,-1.886 2.139,-2.431 0.888,-0.545 1.849,-0.818 2.885,-0.818 0.874,0 1.608,0.122 2.2,0.364 0.592,0.242 1.177,0.632 1.755,1.171 l -1.05,1.089 c -0.43,-0.39 -0.878,-0.679 -1.342,-0.868 -0.464,-0.188 -0.985,-0.282 -1.564,-0.282 -1.129,0 -2.071,0.45 -2.825,1.351 -0.753,0.902 -1.129,2.347 -1.129,4.338 0,1.977 0.305,3.423 0.918,4.337 0.612,0.915 1.537,1.372 2.774,1.372 0.982,0 1.863,-0.222 2.644,-0.665 v -4.217 h -2.724 l -0.202,-1.472 h 4.681 v 6.617 c -0.699,0.39 -1.402,0.69 -2.109,0.898 -0.706,0.208 -1.516,0.313 -2.431,0.313 -1.695,0 -3.023,-0.609 -3.984,-1.826 z"
       fill="#ffffff"
       id="path14" />
    <path
       d="m 282.096,114.193 h -1.755 v -12.388 h -4.338 v -1.514 h 10.471 l -0.182,1.514 h -4.196 z"
       fill="#ffffff"
       id="path15" />
    <path
       d="m 294.605,106.426 h 5.165 v 1.432 h -5.165 v 4.923 h 6.335 v 1.412 h -8.07 v -13.901 h 7.888 l -0.202,1.453 h -5.952 v 4.681 z"
       fill="#ffffff"
       id="path16" />
    <path
       d="m 314.902,100.403 c 0.619,0.222 1.224,0.562 1.816,1.019 l -0.989,1.15 c -0.821,-0.686 -1.796,-1.029 -2.926,-1.029 -1.251,0 -2.269,0.454 -3.057,1.362 -0.786,0.907 -1.18,2.35 -1.18,4.327 0,1.964 0.383,3.403 1.15,4.318 0.767,0.915 1.789,1.372 3.067,1.372 0.699,0 1.298,-0.101 1.796,-0.303 0.497,-0.202 0.974,-0.485 1.432,-0.847 l 0.908,1.129 c -1.036,1.009 -2.421,1.514 -4.156,1.514 -1.144,0 -2.172,-0.279 -3.087,-0.837 -0.914,-0.558 -1.634,-1.376 -2.158,-2.451 -0.525,-1.076 -0.787,-2.374 -0.787,-3.894 0,-1.506 0.266,-2.801 0.797,-3.884 0.531,-1.083 1.251,-1.9 2.159,-2.451 0.907,-0.552 1.907,-0.828 2.996,-0.828 0.861,0 1.6,0.111 2.219,0.333 z"
       fill="#ffffff"
       id="path17" />
    <path
       d="m 329.267,107.596 h -5.245 v 6.598 h -1.755 v -13.901 h 1.755 v 5.871 h 5.245 v -5.871 h 1.755 v 13.901 h -1.755 z"
       fill="#ffffff"
       id="path18" />
  </g>
</svg>
